
<svg width="56" height="56" viewBox="0 0 56 56" fill="none" xmlns="http://www.w3.org/2000/svg">
<path d="M53 35L47 41L41 35L44 35L44 29.5C44 29.3674 44.0527 29.2402 44.1464 29.1464C44.2402 29.0527 44.3674 29 44.5 29L49.5 29C49.6326 29 49.7598 29.0527 49.8536 29.1464C49.9473 29.2402 50 29.3674 50 29.5L50 35L53 35Z" stroke="black" stroke-linecap="round" stroke-linejoin="round"/>
<path d="M26.1544 24.8993V25.5436" stroke="black" stroke-linecap="round" stroke-linejoin="round"/>
<path d="M26.1544 28.7651V29.4094" stroke="black" stroke-linecap="round" stroke-linejoin="round"/>
<path d="M26.1544 31.0201C28.2894 31.0201 30.0201 29.2894 30.0201 27.1544C30.0201 25.0194 28.2894 23.2886 26.1544 23.2886C24.0194 23.2886 22.2886 25.0194 22.2886 27.1544C22.2886 29.2894 24.0194 31.0201 26.1544 31.0201Z" stroke="black" stroke-linecap="round" stroke-linejoin="round"/>
<path d="M25.1879 28.7651H26.6376C26.8512 28.7651 27.056 28.6802 27.2071 28.5292C27.3581 28.3782 27.4429 28.1733 27.4429 27.9597C27.4429 27.7461 27.3581 27.5413 27.2071 27.3903C27.056 27.2392 26.8512 27.1544 26.6376 27.1544H25.6711C25.4575 27.1544 25.2527 27.0695 25.1017 26.9185C24.9506 26.7674 24.8658 26.5626 24.8658 26.349C24.8658 26.1354 24.9506 25.9305 25.1017 25.7795C25.2527 25.6285 25.4575 25.5436 25.6711 25.5436H27.1208" stroke="black" stroke-linecap="round" stroke-linejoin="round"/>
<path d="M42.6395 36H6C5.44772 36 5 35.5523 5 35V19C5 18.4477 5.44772 18 6 18H45.5C46.0523 18 46.5 18.4477 46.5 19V28.8947" stroke="black"/>
</svg>
