
<svg width="56" height="56" viewBox="0 0 56 56" fill="none" xmlns="http://www.w3.org/2000/svg">
<path d="M26.6544 25.3993V26.0436" stroke="black" stroke-linecap="round" stroke-linejoin="round"/>
<path d="M26.6544 29.2651V29.9094" stroke="black" stroke-linecap="round" stroke-linejoin="round"/>
<path d="M26.6544 31.5201C28.7894 31.5201 30.5201 29.7894 30.5201 27.6544C30.5201 25.5194 28.7894 23.7886 26.6544 23.7886C24.5194 23.7886 22.7886 25.5194 22.7886 27.6544C22.7886 29.7894 24.5194 31.5201 26.6544 31.5201Z" stroke="black" stroke-linecap="round" stroke-linejoin="round"/>
<path d="M25.6879 29.2651H27.1376C27.3512 29.2651 27.556 29.1802 27.7071 29.0292C27.8581 28.8782 27.943 28.6733 27.943 28.4597C27.943 28.2461 27.8581 28.0413 27.7071 27.8903C27.556 27.7392 27.3512 27.6544 27.1376 27.6544H26.1712C25.9576 27.6544 25.7527 27.5695 25.6017 27.4185C25.4506 27.2674 25.3658 27.0626 25.3658 26.849C25.3658 26.6354 25.4506 26.4305 25.6017 26.2795C25.7527 26.1285 25.9576 26.0436 26.1712 26.0436H27.6208" stroke="black" stroke-linecap="round" stroke-linejoin="round"/>
<path d="M41.5 32L47.5 26L53.5 32H50.5V37.5C50.5 37.6326 50.4473 37.7598 50.3536 37.8536C50.2598 37.9473 50.1326 38 50 38H45C44.8674 38 44.7402 37.9473 44.6464 37.8536C44.5527 37.7598 44.5 37.6326 44.5 37.5V32H41.5Z" stroke="black" stroke-linecap="round" stroke-linejoin="round"/>
<path d="M44.5 37H7C6.44772 37 6 36.5523 6 36V20C6 19.4477 6.44772 19 7 19H46.5C47.0523 19 47.5 19.4477 47.5 20V25.5V26.5" stroke="black"/>
</svg>
